{
  "accessors": [
    {
      "bufferView": 2,
      "componentType": 5126,
      "count": 65532,
      "max": [
        123.54794311523438,
        5.238234996795654,
        182.03302001953125
      ],
      "min": [
        -116.9815673828125,
        -492.2366943359375,
        -181.64169311523438
      ],
      "type": "VEC3"
    },
    {
      "bufferView": 2,
      "byteOffset": 786384,
      "componentType": 5126,
      "count": 65532,
      "max": [
        0.9962819814682007,
        0.9999927282333374,
        0.999885618686676
      ],
      "min": [
        -0.9999746680259705,
        -0.9999518394470215,
        -0.9999727606773376
      ],
      "type": "VEC3"
    },
    {
      "bufferView": 3,
      "componentType": 5126,
      "count": 65532,
      "max": [
        0.999994158744812,
        0.9999615550041199,
        0.9999337792396545,
        1.0
      ],
      "min": [
        -0.9999858736991882,
        -0.9999998211860657,
        -0.9999926090240479,
        -1.0
      ],
      "type": "VEC4"
    },
    {
      "bufferView": 1,
      "componentType": 5126,
      "count": 65532,
      "max": [
        1.0,
        0.598691999912262
      ],
      "min": [
        -1.8999999156221747e-05,
        0.0003000000142492354
      ],
      "type": "VEC2"
    },
    {
      "bufferView": 0,
      "componentType": 5125,
      "count": 314067,
      "type": "SCALAR"
    },
    {
      "bufferView": 2,
      "byteOffset": 1572768,
      "componentType": 5126,
      "count": 65532,
      "max": [
        99.04116821289063,
        3.4593958854675293,
        182.26638793945313
      ],
      "min": [
        -96.53192138671875,
        -491.70098876953125,
        -182.98138427734375
      ],
      "type": "VEC3"
    },
    {
      "bufferView": 2,
      "byteOffset": 2359152,
      "componentType": 5126,
      "count": 65532,
      "max": [
        0.9999989867210388,
        0.999791145324707,
        0.9999997615814209
      ],
      "min": [
        -0.9975031018257141,
        -0.9997444748878479,
        -0.9999547600746155
      ],
      "type": "VEC3"
    },
    {
      "bufferView": 3,
      "byteOffset": 1048512,
      "componentType": 5126,
      "count": 65532,
      "max": [
        0.999999463558197,
        0.9965680241584778,
        0.9865601062774658,
        1.0
      ],
      "min": [
        -0.9999778270721436,
        -1.0,
        -0.9993576407432556,
        -1.0
      ],
      "type": "VEC4"
    },
    {
      "bufferView": 1,
      "byteOffset": 524256,
      "componentType": 5126,
      "count": 65532,
      "max": [
        0.9999840259552002,
        0.5999860167503357
      ],
      "min": [
        0.004178999923169613,
        0.25609999895095825
      ],
      "type": "VEC2"
    },
    {
      "bufferView": 0,
      "byteOffset": 1256268,
      "componentType": 5125,
      "count": 350484,
      "type": "SCALAR"
    },
    {
      "bufferView": 2,
      "byteOffset": 3145536,
      "componentType": 5126,
      "count": 65532,
      "max": [
        124.90594482421875,
        -127.5355453491211,
        182.22164916992188
      ],
      "min": [
        -29.99383544921875,
        -491.5052490234375,
        -179.70297241210938
      ],
      "type": "VEC3"
    },
    {
      "bufferView": 2,
      "byteOffset": 3931920,
      "componentType": 5126,
      "count": 65532,
      "max": [
        0.9999948740005493,
        0.9996684789657593,
        0.9998522996902466
      ],
      "min": [
        -0.9054341316223145,
        -0.9998759627342224,
        -0.9999037384986877
      ],
      "type": "VEC3"
    },
    {
      "bufferView": 3,
      "byteOffset": 2097024,
      "componentType": 5126,
      "count": 65532,
      "max": [
        0.9999995231628418,
        0.9987990856170654,
        0.999965250492096,
        1.0
      ],
      "min": [
        -0.9999136924743652,
        -0.9998643398284912,
        -0.9995725750923157,
        -1.0
      ],
      "type": "VEC4"
    },
    {
      "bufferView": 1,
      "byteOffset": 1048512,
      "componentType": 5126,
      "count": 65532,
      "max": [
        1.0,
        0.6057649850845337
      ],
      "min": [
        0.0005000000237487257,
        0.00039999998989515007
      ],
      "type": "VEC2"
    },
    {
      "bufferView": 0,
      "byteOffset": 2658204,
      "componentType": 5125,
      "count": 337989,
      "type": "SCALAR"
    },
    {
      "bufferView": 2,
      "byteOffset": 4718304,
      "componentType": 5126,
      "count": 65532,
      "max": [
        124.87014770507813,
        0.3117069900035858,
        182.23434448242188
      ],
      "min": [
        -116.39715576171875,
        -489.4893798828125,
        -177.290283203125
      ],
      "type": "VEC3"
    },
    {
      "bufferView": 2,
      "byteOffset": 5504688,
      "componentType": 5126,
      "count": 65532,
      "max": [
        0.9999948740005493,
        0.9999710321426392,
        0.9995402693748474
      ],
      "min": [
        -0.9940305948257446,
        -0.9999597072601318,
        -0.9999750852584839
      ],
      "type": "VEC3"
    },
    {
      "bufferView": 3,
      "byteOffset": 3145536,
      "componentType": 5126,
      "count": 65532,
      "max": [
        0.9999997019767761,
        0.9998760223388672,
        0.9993438720703125,
        1.0
      ],
      "min": [
        -0.9999430179595947,
        -0.9999490976333618,
        -0.9998102188110352,
        -1.0
      ],
      "type": "VEC4"
    },
    {
      "bufferView": 1,
      "byteOffset": 1572768,
      "componentType": 5126,
      "count": 65532,
      "max": [
        1.0,
        0.5983150005340576
      ],
      "min": [
        0.00016799999866634607,
        0.00019999999494757503
      ],
      "type": "VEC2"
    },
    {
      "bufferView": 0,
      "byteOffset": 4010160,
      "componentType": 5125,
      "count": 316623,
      "type": "SCALAR"
    },
    {
      "bufferView": 2,
      "byteOffset": 6291072,
      "componentType": 5126,
      "count": 65532,
      "max": [
        124.90594482421875,
        5.238234996795654,
        181.857177734375
      ],
      "min": [
        -116.4185791015625,
        -492.2366943359375,
        -169.7266082763672
      ],
      "type": "VEC3"
    },
    {
      "bufferView": 2,
      "byteOffset": 7077456,
      "componentType": 5126,
      "count": 65532,
      "max": [
        0.999904453754425,
        0.9999997019767761,
        0.9999529719352722
      ],
      "min": [
        -0.9999356269836426,
        -0.9999369978904724,
        -0.9999750852584839
      ],
      "type": "VEC3"
    },
    {
      "bufferView": 3,
      "byteOffset": 4194048,
      "componentType": 5126,
      "count": 65532,
      "max": [
        0.9996451139450073,
        0.9999119639396667,
        0.9999978542327881,
        1.0
      ],
      "min": [
        -0.9968329668045044,
        -0.9999949336051941,
        -1.0,
        -1.0
      ],
      "type": "VEC4"
    },
    {
      "bufferView": 1,
      "byteOffset": 2097024,
      "componentType": 5126,
      "count": 65532,
      "max": [
        1.0,
        0.5932000279426575
      ],
      "min": [
        0.0,
        0.00019999999494757503
      ],
      "type": "VEC2"
    },
    {
      "bufferView": 0,
      "byteOffset": 5276652,
      "componentType": 5125,
      "count": 217497,
      "type": "SCALAR"
    },
    {
      "bufferView": 2,
      "byteOffset": 7863840,
      "componentType": 5126,
      "count": 65532,
      "max": [
        120.10305786132813,
        4.73590087890625,
        154.69900512695313
      ],
      "min": [
        -117.00836181640625,
        -475.6061706542969,
        -183.2025909423828
      ],
      "type": "VEC3"
    },
    {
      "bufferView": 2,
      "byteOffset": 8650224,
      "componentType": 5126,
      "count": 65532,
      "max": [
        0.9999313354492188,
        0.9999006986618042,
        0.9862497448921204
      ],
      "min": [
        -0.9999856352806091,
        -0.9977297782897949,
        -0.9999547600746155
      ],
      "type": "VEC3"
    },
    {
      "bufferView": 3,
      "byteOffset": 5242560,
      "componentType": 5126,
      "count": 65532,
      "max": [
        0.9994019865989685,
        0.9985399842262268,
        0.9990025162696838,
        1.0
      ],
      "min": [
        -0.9999962449073792,
        -0.9997439384460449,
        -0.9997984766960144,
        -1.0
      ],
      "type": "VEC4"
    },
    {
      "bufferView": 1,
      "byteOffset": 2621280,
      "componentType": 5126,
      "count": 65532,
      "max": [
        0.9996880292892456,
        0.5935860276222229
      ],
      "min": [
        0.0,
        0.0004889999981969595
      ],
      "type": "VEC2"
    },
    {
      "bufferView": 0,
      "byteOffset": 6146640,
      "componentType": 5125,
      "count": 355455,
      "type": "SCALAR"
    },
    {
      "bufferView": 2,
      "byteOffset": 9436608,
      "componentType": 5126,
      "count": 9573,
      "max": [
        8.704681396484375,
        -172.2847442626953,
        182.10098266601563
      ],
      "min": [
        -116.9815673828125,
        -477.26953125,
        -183.08358764648438
      ],
      "type": "VEC3"
    },
    {
      "bufferView": 2,
      "byteOffset": 9551484,
      "componentType": 5126,
      "count": 9573,
      "max": [
        0.9496636390686035,
        0.9910551905632019,
        0.9979111552238464
      ],
      "min": [
        -0.9999856352806091,
        -0.9876760244369507,
        -0.9954618811607361
      ],
      "type": "VEC3"
    },
    {
      "bufferView": 3,
      "byteOffset": 6291072,
      "componentType": 5126,
      "count": 9573,
      "max": [
        0.9911884069442749,
        0.781682014465332,
        0.997782289981842,
        1.0
      ],
      "min": [
        -0.9980905652046204,
        -0.9995706677436829,
        -0.9975149631500244,
        -1.0
      ],
      "type": "VEC4"
    },
    {
      "bufferView": 1,
      "byteOffset": 3145536,
      "componentType": 5126,
      "count": 9573,
      "max": [
        0.4025759994983673,
        0.4447000026702881
      ],
      "min": [
        0.10722800344228745,
        0.00017699999443721026
      ],
      "type": "VEC2"
    },
    {
      "bufferView": 0,
      "byteOffset": 7568460,
      "componentType": 5125,
      "count": 34251,
      "type": "SCALAR"
    }
  ],
  "asset": {
    "extras": {
      "author": "CosmoWenman (https://sketchfab.com/cosmowenman)",
      "license": "CC-BY-NC-SA-4.0 (http://creativecommons.org/licenses/by-nc-sa/4.0/)",
      "source": "https://sketchfab.com/3d-models/bust-of-nefertiti-foia-results-8c60faca6152405e9d35784efa8b9aa1",
      "title": "BUST OF NEFERTITI, FOIA Results"
    },
    "generator": "Sketchfab-12.67.0",
    "version": "2.0"
  },
  "bufferViews": [
    {
      "buffer": 0,
      "byteLength": 7705464,
      "name": "floatBufferViews",
      "target": 34963
    },
    {
      "buffer": 0,
      "byteLength": 3222120,
      "byteOffset": 7705464,
      "byteStride": 8,
      "name": "floatBufferViews",
      "target": 34962
    },
    {
      "buffer": 0,
      "byteLength": 9666360,
      "byteOffset": 10927584,
      "byteStride": 12,
      "name": "floatBufferViews",
      "target": 34962
    },
    {
      "buffer": 0,
      "byteLength": 6444240,
      "byteOffset": 20593944,
      "byteStride": 16,
      "name": "floatBufferViews",
      "target": 34962
    }
  ],
  "buffers": [
    {
      "byteLength": 27038184,
      "uri": "scene.bin"
    }
  ],
  "images": [
    {
      "uri": "textures/material_0_baseColor.png"
    },
    {
      "uri": "textures/material_0_metallicRoughness.png"
    },
    {
      "uri": "textures/material_0_normal.png"
    }
  ],
  "materials": [
    {
      "doubleSided": true,
      "name": "material_0",
      "normalTexture": {
        "index": 2,
        "scale": 0.48346458993306973
      },
      "pbrMetallicRoughness": {
        "baseColorTexture": {
          "index": 0
        },
        "metallicFactor": 0.0,
        "metallicRoughnessTexture": {
          "index": 1
        }
      }
    }
  ],
  "meshes": [
    {
      "name": "Object_0",
      "primitives": [
        {
          "attributes": {
            "NORMAL": 1,
            "POSITION": 0,
            "TANGENT": 2,
            "TEXCOORD_0": 3
          },
          "indices": 4,
          "material": 0,
          "mode": 4
        }
      ]
    },
    {
      "name": "Object_1",
      "primitives": [
        {
          "attributes": {
            "NORMAL": 6,
            "POSITION": 5,
            "TANGENT": 7,
            "TEXCOORD_0": 8
          },
          "indices": 9,
          "material": 0,
          "mode": 4
        }
      ]
    },
    {
      "name": "Object_2",
      "primitives": [
        {
          "attributes": {
            "NORMAL": 11,
            "POSITION": 10,
            "TANGENT": 12,
            "TEXCOORD_0": 13
          },
          "indices": 14,
          "material": 0,
          "mode": 4
        }
      ]
    },
    {
      "name": "Object_3",
      "primitives": [
        {
          "attributes": {
            "NORMAL": 16,
            "POSITION": 15,
            "TANGENT": 17,
            "TEXCOORD_0": 18
          },
          "indices": 19,
          "material": 0,
          "mode": 4
        }
      ]
    },
    {
      "name": "Object_4",
      "primitives": [
        {
          "attributes": {
            "NORMAL": 21,
            "POSITION": 20,
            "TANGENT": 22,
            "TEXCOORD_0": 23
          },
          "indices": 24,
          "material": 0,
          "mode": 4
        }
      ]
    },
    {
      "name": "Object_5",
      "primitives": [
        {
          "attributes": {
            "NORMAL": 26,
            "POSITION": 25,
            "TANGENT": 27,
            "TEXCOORD_0": 28
          },
          "indices": 29,
          "material": 0,
          "mode": 4
        }
      ]
    },
    {
      "name": "Object_6",
      "primitives": [
        {
          "attributes": {
            "NORMAL": 31,
            "POSITION": 30,
            "TANGENT": 32,
            "TEXCOORD_0": 33
          },
          "indices": 34,
          "material": 0,
          "mode": 4
        }
      ]
    }
  ],
  "nodes": [
    {
      "children": [
        1
      ],
      "matrix": [
        0.0010225168662145734,
        0.0,
        0.0,
        0.0,
        0.0,
        -0.0010225168662145734,
        -4.540887071755921e-19,
        0.0,
        0.0,
        4.540887071755921e-19,
        -0.0010225168662145734,
        0.0,
        0.0,
        -243.96742248535162,
        243.0314331054687,
        1.0
      ],
      "name": "Sketchfab_model"
    },
    {
      "children": [
        2,
        3,
        4,
        5,
        6,
        7,
        8
      ],
      "name": "20191106 Nefertiti 3D Scan, DECIMATED_TO_10pcnt.obj.cleaner.materialmerger.gles"
    },
    {
      "mesh": 0,
      "name": "Object_2"
    },
    {
      "mesh": 1,
      "name": "Object_3"
    },
    {
      "mesh": 2,
      "name": "Object_4"
    },
    {
      "mesh": 3,
      "name": "Object_5"
    },
    {
      "mesh": 4,
      "name": "Object_6"
    },
    {
      "mesh": 5,
      "name": "Object_7"
    },
    {
      "mesh": 6,
      "name": "Object_8"
    }
  ],
  "samplers": [
    {
      "magFilter": 9729,
      "minFilter": 9987,
      "wrapS": 10497,
      "wrapT": 10497
    }
  ],
  "scene": 0,
  "scenes": [
    {
      "name": "Sketchfab_Scene",
      "nodes": [
        0
      ]
    }
  ],
  "textures": [
    {
      "sampler": 0,
      "source": 0
    },
    {
      "sampler": 0,
      "source": 1
    },
    {
      "sampler": 0,
      "source": 2
    }
  ]
}
